Coordinates
version=1
nRows=13
nColumns=40
inDegrees=yes

Units are S.I. units (second, meters, Newtons, ...)
If the header above contains a line with 'inDegrees', this indicates whether rotational values are in degrees (yes) or radians (no).

endheader
time	pelvis_tilt	pelvis_list	pelvis_rotation	pelvis_tx	pelvis_ty	pelvis_tz	hip_flexion_r	hip_adduction_r	hip_rotation_r	knee_angle_r	knee_angle_r_beta	ankle_angle_r	subtalar_angle_r	mtp_angle_r	hip_flexion_l	hip_adduction_l	hip_rotation_l	knee_angle_l	knee_angle_l_beta	ankle_angle_l	subtalar_angle_l	mtp_angle_l	lumbar_extension	lumbar_bending	lumbar_rotation	arm_flex_r	arm_add_r	arm_rot_r	elbow_flex_r	pro_sup_r	wrist_flex_r	wrist_dev_r	arm_flex_l	arm_add_l	arm_rot_l	elbow_flex_l	pro_sup_l	wrist_flex_l	wrist_dev_l
      3.88300000	     -8.13127320	      5.86250848	    -11.25634568	      0.05286434	      1.31139395	      0.01512943	     55.00657262	      1.24732918	     14.30031683	     93.00248960	      1.62319966	    -22.16772581	    -33.01513178	      0.00000000	     61.27023684	     -4.78698318	     -1.19316661	     63.46140096	      1.10761039	     -6.08200142	    -32.11346400	      0.00000000	    -34.68564051	     -8.58882602	     -0.01135496	     58.80130237	     -0.78123536	     -3.97828980	     48.81291721	     85.75662052	      0.00000000	      0.00000000	     64.68192925	     -1.99683631	    -12.76491171	     52.36898273	     79.37045106	      0.00000000	      0.00000000
      3.90000000	     -8.16520811	      5.61934890	    -12.42419252	      0.05261985	      1.31107285	      0.01657354	     58.12575204	      3.07564933	     15.28810440	     98.27287570	      1.71518525	    -21.61033710	    -32.63904032	      0.00000000	     56.79266192	     -5.36808930	     -1.96142769	     57.01070033	      0.99502443	     -7.15136873	    -32.38526288	      0.00000000	    -34.50152101	     -8.72705965	      1.01838040	     58.94886703	     -0.71311923	     -3.54428109	     48.84571885	     86.01378450	      0.00000000	      0.00000000	     64.47578211	     -2.43233584	    -12.75542658	     52.65064273	     79.58571258	      0.00000000	      0.00000000
      3.91700000	     -8.44941219	      5.25189615	    -13.29153137	      0.05221970	      1.31047286	      0.01762432	     61.49654259	      4.89689856	     15.93579509	    103.00038853	      1.79769591	    -20.23436334	    -32.19290920	      0.00000000	     52.70080538	     -5.96408300	     -2.81373075	     51.16112838	      0.89293014	     -9.02107906	    -31.74056892	      0.00000000	    -34.16393824	     -8.48660000	      1.82500975	     59.12438561	     -0.48652676	     -3.12914167	     48.78964302	     85.99593334	      0.00000000	      0.00000000	     64.08394647	     -2.71741740	    -13.14352802	     53.05489484	     79.54058109	      0.00000000	      0.00000000
      3.93300000	     -8.54528188	      5.38345150	    -14.64621348	      0.05178351	      1.30998356	      0.01912242	     64.93181104	      6.86663781	     17.24523433	    107.22639147	      1.87145358	    -18.30209611	    -30.89100728	      0.00000000	     48.29068588	     -6.57426549	     -4.93260459	     45.59503066	      0.79578341	    -11.15376755	    -31.07443732	      0.00000000	    -33.90299111	     -8.97118815	      2.68802109	     59.35016711	     -0.11704306	     -2.84945463	     48.58850461	     86.18603978	      0.00000000	      0.00000000	     63.66467459	     -3.06628882	    -13.48614963	     53.49675374	     79.67326498	      0.00000000	      0.00000000
      3.95000000	     -8.68904509	      5.24008171	    -15.62667165	      0.05150392	      1.30947624	      0.02018729	     68.14264684	      8.65406934	     17.84479224	    110.44082972	      1.92755611	    -16.04564736	    -29.95141089	      0.00000000	     44.52310129	     -7.11697527	     -6.70951018	     41.23899304	      0.71975621	    -13.51557270	    -29.57143195	      0.00000000	    -33.69770843	     -9.06771046	      3.41647380	     59.51299910	      0.17603393	     -2.55150196	     48.49426840	     86.27383979	      0.00000000	      0.00000000	     63.34398709	     -3.42396722	    -13.74959771	     53.82117644	     79.82715494	      0.00000000	      0.00000000
      3.96700000	     -8.89415085	      5.05784845	    -16.24037608	      0.05126753	      1.30898807	      0.02046596	     71.23507794	      9.99732293	     17.85041882	    112.56982085	      1.96471401	    -13.56824602	    -29.95968606	      0.00000000	     41.58045387	     -7.47874997	     -8.09067801	     38.45483330	      0.67116345	    -15.86371535	    -27.83227483	      0.00000000	    -33.50266780	     -9.01232310	      3.89382592	     59.79151320	      0.31788081	     -2.05368730	     48.26826014	     86.34756962	      0.00000000	      0.00000000	     63.07298579	     -3.86300595	    -13.76122848	     54.17315000	     79.92548645	      0.00000000	      0.00000000
      3.98300000	     -9.14706988	      4.76286270	    -16.40664768	      0.05103000	      1.30863516	      0.02011878	     74.17195692	     10.89762819	     17.30669214	    113.73760625	      1.98509571	    -10.87709917	    -30.55679338	      0.00000000	     39.39563082	     -7.74746523	     -8.98001590	     37.15716504	      0.64851487	    -18.25332636	    -25.92994326	      0.00000000	    -33.37703652	     -8.67933734	      4.10665567	     60.04751081	      0.40292017	     -1.59463861	     48.07365437	     85.99244687	      0.00000000	      0.00000000	     62.96069438	     -4.24744438	    -13.71215127	     54.30774432	     79.66810883	      0.00000000	      0.00000000
      4.00000000	     -9.20055733	      4.64603146	    -16.44958688	      0.05108173	      1.30848482	      0.01962956	     76.55837241	     11.47120609	     16.77937839	    113.93362921	      1.98851696	     -8.59848496	    -31.21579179	      0.00000000	     37.74382973	     -7.76984945	     -9.80191197	     37.25264309	      0.65018128	    -19.96775854	    -24.59890248	      0.00000000	    -33.43168154	     -8.51190094	      4.10396983	     60.25668797	      0.42966604	     -1.23390017	     47.94514745	     85.74547445	      0.00000000	      0.00000000	     62.87487579	     -4.53700107	    -13.73687198	     54.40020342	     79.43637638	      0.00000000	      0.00000000
      4.01700000	     -9.04791400	      4.62202475	    -17.03006806	      0.05096564	      1.30870858	      0.01987207	     78.32530514	     12.44317690	     16.24881981	    113.00091671	      1.97223805	     -6.90917267	    -32.06677343	      0.00000000	     36.63189389	     -8.14501266	    -11.18935304	     39.00231067	      0.68071874	    -21.09909586	    -23.65889428	      0.00000000	    -33.69274400	     -8.81536050	      4.40351909	     60.64731975	      0.27150655	     -0.53470420	     47.79020202	     86.26782140	      0.00000000	      0.00000000	     62.59199338	     -4.70516109	    -13.88923675	     55.06622932	     79.14954462	      0.00000000	      0.00000000
      4.03300000	     -8.88786020	      4.62594878	    -17.01831041	      0.05098123	      1.30898930	      0.01941378	     79.65733446	     12.69002903	     15.49545708	    111.12470947	      1.93949206	     -5.67224500	    -32.83498230	      0.00000000	     36.42376484	     -8.16414306	    -11.74362949	     42.30189143	      0.73830729	    -22.05052463	    -23.37689793	      0.00000000	    -34.03785589	     -8.87297967	      4.34229910	     60.87890561	     -0.00726491	     -0.08226604	     47.80976444	     85.68482957	      0.00000000	      0.00000000	     62.50235705	     -4.57550706	    -14.08830558	     55.39549013	     78.40161077	      0.00000000	      0.00000000
      4.05000000	     -8.67332197	      4.70574500	    -16.95575722	      0.05106135	      1.30941765	      0.01904395	     80.22376236	     12.67730935	     14.95810651	    108.36581112	      1.89134020	     -4.66474111	    -33.21379221	      0.00000000	     36.68691966	     -8.21600811	    -12.13682606	     46.43824278	      0.81050024	    -22.47360806	    -23.04561548	      0.00000000	    -34.39937184	     -8.98223904	      4.13060450	     61.14327729	     -0.14404811	      0.20852529	     47.76722167	     85.85650198	      0.00000000	      0.00000000	     62.46037276	     -4.54541600	    -14.27582852	     55.70573274	     78.18946887	      0.00000000	      0.00000000
      4.06700000	     -8.41979075	      4.98202664	    -16.88166712	      0.05126500	      1.30986295	      0.01876958	     80.00139017	     12.40934579	     14.86461098	    104.69342071	      1.82724490	     -3.85583198	    -33.26116374	      0.00000000	     37.45312052	     -8.25396125	    -12.47202114	     51.40663391	      0.89721502	    -22.43008951	    -22.24856496	      0.00000000	    -34.68660226	     -9.21721824	      3.74025368	     61.47126097	     -0.13624400	      0.45032112	     47.49958957	     85.99520689	      0.00000000	      0.00000000	     62.50341748	     -4.66756952	    -14.41706546	     55.82204639	     78.24745992	      0.00000000	      0.00000000
      4.08300000	     -8.07503408	      5.31195423	    -16.81531187	      0.05143009	      1.31047669	      0.01873658	     78.98375716	     11.96277413	     14.94144134	    100.09152853	      1.74692673	     -3.78715968	    -33.30201996	      0.00000000	     38.62021698	     -8.35556856	    -12.69337150	     57.11066716	      0.99676918	    -22.34169591	    -21.57239739	      0.00000000	    -35.02749730	     -9.54795456	      3.27676516	     61.82496073	     -0.03140763	      0.58569113	     47.10742053	     86.07728268	      0.00000000	      0.00000000	     62.66192747	     -4.82938742	    -14.49185588	     55.82941942	     78.31399043	      0.00000000	      0.00000000
